<mxfile host="app.diagrams.net" modified="2021-12-01T07:43:06.914Z" agent="5.0 (Windows NT 10.0; Win64; x64) AppleWebKit/537.36 (KHTML, like Gecko) Chrome/96.0.4664.55 Safari/537.36 Edg/96.0.1054.34" etag="uyo3YqR1Qsng76defodD" version="15.8.7" type="github">
  <diagram id="8gRKne2FA41NQQVUVyv7" name="Page-1">
    <mxGraphModel dx="1038" dy="583" grid="1" gridSize="10" guides="1" tooltips="1" connect="1" arrows="1" fold="1" page="1" pageScale="1" pageWidth="827" pageHeight="1169" math="0" shadow="0">
      <root>
        <mxCell id="0" />
        <mxCell id="1" parent="0" />
        <mxCell id="L_gRHVgUrBo6vKEFlyUR-32" style="edgeStyle=orthogonalEdgeStyle;rounded=0;orthogonalLoop=1;jettySize=auto;html=1;entryX=0.003;entryY=0.082;entryDx=0;entryDy=0;entryPerimeter=0;fontSize=16;" edge="1" parent="1" source="L_gRHVgUrBo6vKEFlyUR-2" target="L_gRHVgUrBo6vKEFlyUR-11">
          <mxGeometry relative="1" as="geometry" />
        </mxCell>
        <mxCell id="L_gRHVgUrBo6vKEFlyUR-2" value="&lt;font style=&quot;font-size: 16px&quot;&gt;Redis Worker Thread&lt;/font&gt;" style="rounded=0;whiteSpace=wrap;html=1;" vertex="1" parent="1">
          <mxGeometry x="160" y="230" width="160" height="30" as="geometry" />
        </mxCell>
        <mxCell id="L_gRHVgUrBo6vKEFlyUR-31" style="edgeStyle=orthogonalEdgeStyle;rounded=0;orthogonalLoop=1;jettySize=auto;html=1;entryX=-0.003;entryY=0.292;entryDx=0;entryDy=0;entryPerimeter=0;fontSize=16;" edge="1" parent="1" source="L_gRHVgUrBo6vKEFlyUR-3" target="L_gRHVgUrBo6vKEFlyUR-11">
          <mxGeometry relative="1" as="geometry" />
        </mxCell>
        <mxCell id="L_gRHVgUrBo6vKEFlyUR-3" value="&lt;font style=&quot;font-size: 16px&quot;&gt;Redis Subscription Thread&lt;/font&gt;" style="rounded=0;whiteSpace=wrap;html=1;" vertex="1" parent="1">
          <mxGeometry x="160" y="270" width="200" height="30" as="geometry" />
        </mxCell>
        <mxCell id="L_gRHVgUrBo6vKEFlyUR-21" style="edgeStyle=orthogonalEdgeStyle;rounded=0;orthogonalLoop=1;jettySize=auto;html=1;entryX=0.5;entryY=1;entryDx=0;entryDy=0;fontSize=16;" edge="1" parent="1" source="L_gRHVgUrBo6vKEFlyUR-6" target="L_gRHVgUrBo6vKEFlyUR-11">
          <mxGeometry relative="1" as="geometry" />
        </mxCell>
        <mxCell id="L_gRHVgUrBo6vKEFlyUR-6" value="&lt;span style=&quot;font-size: 16px&quot;&gt;RPC Threads&lt;/span&gt;" style="rounded=0;whiteSpace=wrap;html=1;" vertex="1" parent="1">
          <mxGeometry x="160" y="440" width="160" height="30" as="geometry" />
        </mxCell>
        <mxCell id="L_gRHVgUrBo6vKEFlyUR-30" style="edgeStyle=orthogonalEdgeStyle;rounded=0;orthogonalLoop=1;jettySize=auto;html=1;entryX=0;entryY=0.5;entryDx=0;entryDy=0;fontSize=16;" edge="1" parent="1" source="L_gRHVgUrBo6vKEFlyUR-8" target="L_gRHVgUrBo6vKEFlyUR-11">
          <mxGeometry relative="1" as="geometry" />
        </mxCell>
        <mxCell id="L_gRHVgUrBo6vKEFlyUR-8" value="&lt;span style=&quot;font-size: 16px&quot;&gt;DB Threads&lt;/span&gt;" style="rounded=0;whiteSpace=wrap;html=1;" vertex="1" parent="1">
          <mxGeometry x="160" y="310" width="190" height="30" as="geometry" />
        </mxCell>
        <mxCell id="L_gRHVgUrBo6vKEFlyUR-9" value="&lt;span style=&quot;font-size: 16px&quot;&gt;Log Thread&lt;/span&gt;" style="rounded=0;whiteSpace=wrap;html=1;" vertex="1" parent="1">
          <mxGeometry x="160" y="370" width="190" height="30" as="geometry" />
        </mxCell>
        <mxCell id="L_gRHVgUrBo6vKEFlyUR-22" style="edgeStyle=orthogonalEdgeStyle;rounded=0;orthogonalLoop=1;jettySize=auto;html=1;entryX=0.5;entryY=1;entryDx=0;entryDy=0;fontSize=16;" edge="1" parent="1" source="L_gRHVgUrBo6vKEFlyUR-10" target="L_gRHVgUrBo6vKEFlyUR-11">
          <mxGeometry relative="1" as="geometry" />
        </mxCell>
        <mxCell id="L_gRHVgUrBo6vKEFlyUR-10" value="&lt;span style=&quot;font-size: 16px&quot;&gt;Goverance Thread&lt;/span&gt;" style="rounded=0;whiteSpace=wrap;html=1;" vertex="1" parent="1">
          <mxGeometry x="160" y="510" width="160" height="30" as="geometry" />
        </mxCell>
        <mxCell id="L_gRHVgUrBo6vKEFlyUR-15" style="edgeStyle=orthogonalEdgeStyle;rounded=0;orthogonalLoop=1;jettySize=auto;html=1;entryX=0;entryY=0.5;entryDx=0;entryDy=0;fontSize=16;" edge="1" parent="1" source="L_gRHVgUrBo6vKEFlyUR-11" target="L_gRHVgUrBo6vKEFlyUR-9">
          <mxGeometry relative="1" as="geometry">
            <Array as="points">
              <mxPoint x="675" y="200" />
              <mxPoint x="120" y="200" />
              <mxPoint x="120" y="385" />
            </Array>
          </mxGeometry>
        </mxCell>
        <mxCell id="L_gRHVgUrBo6vKEFlyUR-33" style="edgeStyle=orthogonalEdgeStyle;rounded=0;orthogonalLoop=1;jettySize=auto;html=1;entryX=0;entryY=0.5;entryDx=0;entryDy=0;fontSize=16;" edge="1" parent="1" source="L_gRHVgUrBo6vKEFlyUR-11" target="L_gRHVgUrBo6vKEFlyUR-2">
          <mxGeometry relative="1" as="geometry">
            <Array as="points">
              <mxPoint x="675" y="200" />
              <mxPoint x="120" y="200" />
              <mxPoint x="120" y="245" />
            </Array>
          </mxGeometry>
        </mxCell>
        <mxCell id="L_gRHVgUrBo6vKEFlyUR-34" style="edgeStyle=orthogonalEdgeStyle;rounded=0;orthogonalLoop=1;jettySize=auto;html=1;entryX=0;entryY=0.5;entryDx=0;entryDy=0;fontSize=16;" edge="1" parent="1" source="L_gRHVgUrBo6vKEFlyUR-11" target="L_gRHVgUrBo6vKEFlyUR-3">
          <mxGeometry relative="1" as="geometry">
            <Array as="points">
              <mxPoint x="675" y="200" />
              <mxPoint x="120" y="200" />
              <mxPoint x="120" y="285" />
            </Array>
          </mxGeometry>
        </mxCell>
        <mxCell id="L_gRHVgUrBo6vKEFlyUR-43" style="edgeStyle=orthogonalEdgeStyle;rounded=0;orthogonalLoop=1;jettySize=auto;html=1;fontSize=16;entryX=0.5;entryY=0;entryDx=0;entryDy=0;" edge="1" parent="1" source="L_gRHVgUrBo6vKEFlyUR-11" target="L_gRHVgUrBo6vKEFlyUR-6">
          <mxGeometry relative="1" as="geometry">
            <Array as="points">
              <mxPoint x="675" y="200" />
              <mxPoint x="120" y="200" />
              <mxPoint x="120" y="420" />
              <mxPoint x="240" y="420" />
            </Array>
          </mxGeometry>
        </mxCell>
        <mxCell id="L_gRHVgUrBo6vKEFlyUR-11" value="&lt;span style=&quot;font-size: 16px&quot;&gt;Main Thread&lt;br&gt;&lt;/span&gt;" style="rounded=0;whiteSpace=wrap;html=1;" vertex="1" parent="1">
          <mxGeometry x="610" y="230" width="130" height="190" as="geometry" />
        </mxCell>
        <mxCell id="L_gRHVgUrBo6vKEFlyUR-23" value="Post&amp;nbsp; IO Task To Worker Thread" style="text;html=1;resizable=0;autosize=1;align=center;verticalAlign=middle;points=[];fillColor=none;strokeColor=none;rounded=0;fontSize=16;" vertex="1" parent="1">
          <mxGeometry x="264" y="170" width="240" height="20" as="geometry" />
        </mxCell>
        <mxCell id="L_gRHVgUrBo6vKEFlyUR-24" value="DB Result" style="text;html=1;resizable=0;autosize=1;align=center;verticalAlign=middle;points=[];fillColor=none;strokeColor=none;rounded=0;fontSize=16;" vertex="1" parent="1">
          <mxGeometry x="414" y="300" width="90" height="20" as="geometry" />
        </mxCell>
        <mxCell id="L_gRHVgUrBo6vKEFlyUR-36" value="Redis Subscription Result&amp;nbsp;" style="text;html=1;resizable=0;autosize=1;align=center;verticalAlign=middle;points=[];fillColor=none;strokeColor=none;rounded=0;fontSize=16;" vertex="1" parent="1">
          <mxGeometry x="385" y="260" width="200" height="20" as="geometry" />
        </mxCell>
        <mxCell id="L_gRHVgUrBo6vKEFlyUR-37" value="Redis Cmd Result" style="text;html=1;resizable=0;autosize=1;align=center;verticalAlign=middle;points=[];fillColor=none;strokeColor=none;rounded=0;fontSize=16;" vertex="1" parent="1">
          <mxGeometry x="395" y="220" width="140" height="20" as="geometry" />
        </mxCell>
        <mxCell id="L_gRHVgUrBo6vKEFlyUR-39" value="RPC callback" style="text;html=1;resizable=0;autosize=1;align=center;verticalAlign=middle;points=[];fillColor=none;strokeColor=none;rounded=0;fontSize=16;" vertex="1" parent="1">
          <mxGeometry x="410" y="430" width="110" height="20" as="geometry" />
        </mxCell>
        <mxCell id="L_gRHVgUrBo6vKEFlyUR-44" value="Add/Remove node callback" style="text;html=1;resizable=0;autosize=1;align=center;verticalAlign=middle;points=[];fillColor=none;strokeColor=none;rounded=0;fontSize=16;" vertex="1" parent="1">
          <mxGeometry x="354" y="500" width="210" height="20" as="geometry" />
        </mxCell>
        <mxCell id="L_gRHVgUrBo6vKEFlyUR-47" value="" style="shape=flexArrow;endArrow=classic;html=1;rounded=0;fontSize=16;entryX=0;entryY=0.5;entryDx=0;entryDy=0;" edge="1" parent="1" target="L_gRHVgUrBo6vKEFlyUR-6">
          <mxGeometry width="50" height="50" relative="1" as="geometry">
            <mxPoint y="455" as="sourcePoint" />
            <mxPoint x="350" y="380" as="targetPoint" />
          </mxGeometry>
        </mxCell>
        <mxCell id="L_gRHVgUrBo6vKEFlyUR-48" value="RPC REQ" style="text;html=1;resizable=0;autosize=1;align=center;verticalAlign=middle;points=[];fillColor=none;strokeColor=none;rounded=0;fontSize=16;" vertex="1" parent="1">
          <mxGeometry y="420" width="90" height="20" as="geometry" />
        </mxCell>
      </root>
    </mxGraphModel>
  </diagram>
</mxfile>
